<svg width="16" height="17" viewBox="0 0 16 17" fill="none" xmlns="http://www.w3.org/2000/svg">
<g id="&#240;&#159;&#166;&#134; icon &#34;message square&#34;">
<path id="Vector" d="M12.6663 2.5H3.33301C2.80257 2.5 2.29387 2.71071 1.91879 3.08579C1.54372 3.46086 1.33301 3.96957 1.33301 4.5V14.5C1.33321 14.6181 1.3648 14.7341 1.42454 14.836C1.48428 14.9379 1.57003 15.0221 1.67301 15.08C1.77264 15.1365 1.88515 15.1663 1.99967 15.1667C2.11933 15.1666 2.23677 15.1344 2.33967 15.0733L5.33301 13.26C5.44365 13.1941 5.571 13.1617 5.69967 13.1667H12.6663C13.1968 13.1667 13.7055 12.956 14.0806 12.5809C14.4556 12.2058 14.6663 11.6971 14.6663 11.1667V4.5C14.6663 3.96957 14.4556 3.46086 14.0806 3.08579C13.7055 2.71071 13.1968 2.5 12.6663 2.5ZM5.33301 8.5C5.20115 8.5 5.07226 8.4609 4.96263 8.38765C4.85299 8.31439 4.76755 8.21027 4.71709 8.08846C4.66663 7.96664 4.65343 7.83259 4.67915 7.70327C4.70487 7.57395 4.76837 7.45516 4.8616 7.36193C4.95484 7.26869 5.07363 7.2052 5.20295 7.17948C5.33227 7.15375 5.46631 7.16696 5.58813 7.21741C5.70995 7.26787 5.81407 7.35332 5.88732 7.46295C5.96057 7.57259 5.99967 7.70148 5.99967 7.83333C5.99967 8.01015 5.92944 8.17971 5.80441 8.30474C5.67939 8.42976 5.50982 8.5 5.33301 8.5ZM7.99967 8.5C7.86782 8.5 7.73893 8.4609 7.62929 8.38765C7.51966 8.31439 7.43421 8.21027 7.38375 8.08846C7.3333 7.96664 7.32009 7.83259 7.34582 7.70327C7.37154 7.57395 7.43503 7.45516 7.52827 7.36193C7.6215 7.26869 7.74029 7.2052 7.86961 7.17948C7.99893 7.15375 8.13298 7.16696 8.2548 7.21741C8.37661 7.26787 8.48073 7.35332 8.55399 7.46295C8.62724 7.57259 8.66634 7.70148 8.66634 7.83333C8.66634 8.01015 8.5961 8.17971 8.47108 8.30474C8.34605 8.42976 8.17649 8.5 7.99967 8.5ZM10.6663 8.5C10.5345 8.5 10.4056 8.4609 10.296 8.38765C10.1863 8.31439 10.1009 8.21027 10.0504 8.08846C9.99996 7.96664 9.98676 7.83259 10.0125 7.70327C10.0382 7.57395 10.1017 7.45516 10.1949 7.36193C10.2882 7.26869 10.407 7.2052 10.5363 7.17948C10.6656 7.15375 10.7996 7.16696 10.9215 7.21741C11.0433 7.26787 11.1474 7.35332 11.2207 7.46295C11.2939 7.57259 11.333 7.70148 11.333 7.83333C11.333 8.01015 11.2628 8.17971 11.1377 8.30474C11.0127 8.42976 10.8432 8.5 10.6663 8.5Z" fill="#2196F3"/>
</g>
</svg>
